<?xml version="1.0" encoding="iso-8859-1"?>
<!-- Generator: Adobe Illustrator 19.0.0, SVG Export Plug-In . SVG Version: 6.00 Build 0)  -->
<svg version="1.1" id="Capa_1" xmlns="http://www.w3.org/2000/svg" xmlns:xlink="http://www.w3.org/1999/xlink" x="0px" y="0px"
	 viewBox="0 0 512.031 512.031" style="enable-background:new 0 0 512.031 512.031;" xml:space="preserve">
<g transform="translate(0 -1)">
	<g>
		<g>
			<path d="M510.532,19.73c2.563-4.987,1.702-11.049-2.15-15.125c-4.102-3.856-10.189-4.707-15.192-2.125
				c-22.292,10.537-42.587,24.86-59.983,42.333l-16.879,16.879l-9.671-9.671c-11.817-11.283-30.417-11.283-42.233,0
				c-5.602,5.599-8.75,13.196-8.75,21.117c0,7.921,3.148,15.517,8.75,21.117l9.054,9.054l-12.071,12.071l-12.067-12.067
				c-10.005-9.983-26.203-9.983-36.208,0l-60.333,60.333c-9.983,10.005-9.983,26.203,0,36.208l12.066,12.066l-12.073,12.069
				l-12.068-12.068c-13.503-12.9-34.764-12.9-48.267,0c-6.403,6.399-10,15.081-10,24.133s3.597,17.734,10,24.133l12.071,12.071
				l-15.594,15.594c-25.601-10.93-55.276-5.195-74.96,14.488c-19.685,19.682-25.423,49.357-14.495,74.959l-19.721,19.756
				c-22.403-7.966-47.397-1.882-63.633,15.489c-16.235,17.371-20.618,42.719-11.157,64.533
				c9.461,21.814,30.962,35.936,54.739,35.953c15.845,0.048,31.047-6.262,42.2-17.517c16.278-16.431,21.832-40.671,14.333-62.55
				l19.452-19.452c25.598,10.839,55.211,5.068,74.866-14.59c19.654-19.658,25.42-49.273,14.576-74.868l15.594-15.594l12.071,12.071
				c8.622,8.622,21.189,11.989,32.967,8.833s20.977-12.355,24.133-24.133c3.156-11.778-0.211-24.345-8.833-32.967l-12.068-12.068
				l12.069-12.073l12.066,12.066c10.003,9.989,26.206,9.989,36.208,0l60.333-60.333c9.983-10.005,9.983-26.203,0-36.208
				l-12.067-12.067l12.071-12.071l9.054,9.054c7.541,7.561,18.545,10.519,28.861,7.76c10.316-2.759,18.373-10.817,21.133-21.133
				c2.759-10.316-0.199-21.32-7.76-28.861l-9.671-9.671l16.879-16.879C485.663,62.366,499.995,42.048,510.532,19.73z
				 M104.182,420.888c-4.81,4.696-6.489,11.739-4.317,18.1c5.519,15.51,1.617,32.811-10.025,44.45
				c-7.983,8.022-18.834,12.53-30.151,12.525s-22.165-4.522-30.141-12.55c-8.022-7.984-12.53-18.837-12.525-30.155
				c0.005-11.318,4.521-22.167,12.55-30.145v0c11.636-11.624,28.924-15.513,44.417-9.992c6.36,2.165,13.398,0.49,18.1-4.308
				l16.309-16.309c3.428,4.586,7.498,8.655,12.084,12.082L104.182,420.888z M204.747,379.257
				c-14.684,21.871-43.569,29.027-66.765,16.54c-8.789-4.761-16.006-11.973-20.775-20.758c-10.736-19.922-7.132-44.528,8.867-60.533
				c18.639-18.616,48.364-20.046,68.704-3.305C215.118,327.941,219.431,357.385,204.747,379.257z M216.166,308.888
				c-3.448-4.559-7.508-8.619-12.067-12.067l12.496-12.496l12.067,12.067L216.166,308.888z M288.999,284.33
				c3.201,3.2,5,7.54,5,12.067s-1.799,8.867-5,12.067c-6.752,6.45-17.382,6.45-24.133,0l-60.342-60.342
				c-3.212-3.193-5.012-7.538-5-12.067v0c-0.001-6.903,4.157-13.126,10.535-15.768c6.377-2.641,13.718-1.181,18.599,3.701
				L288.999,284.33z M276.931,248.129l-12.073-12.073l12.073-12.069L289,236.056L276.931,248.129z M397.607,187.788l-60.333,60.334
				c-3.335,3.333-8.74,3.333-12.075,0l-60.334-60.333c-3.325-3.338-3.325-8.737,0-12.075l60.333-60.333
				c3.335-3.333,8.74-3.333,12.075,0l60.333,60.333C400.932,179.052,400.932,184.45,397.607,187.788z M385.54,139.513
				l-12.067-12.067l12.071-12.071l12.067,12.067L385.54,139.513z M452.649,127.447c0,3.395-1.349,6.65-3.75,9.05
				c-5.065,4.833-13.035,4.833-18.1,0L376.49,82.188c-2.401-2.4-3.75-5.655-3.75-9.05s1.349-6.65,3.75-9.05v0
				c2.4-2.401,5.655-3.75,9.05-3.75s6.65,1.349,9.05,3.75l54.308,54.308C451.3,120.796,452.649,124.052,452.649,127.447z
				 M439.228,84.592l-10.833-10.833l16.879-16.879c13.113-13.131,27.996-24.368,44.217-33.383
				c-9.01,16.224-20.247,31.108-33.383,44.217L439.228,84.592z"/>
			<path d="M69.463,429.638c-11.278-4.663-24.28-0.711-31.055,9.441c-6.775,10.151-5.435,23.675,3.199,32.3
				c4.797,4.804,11.311,7.497,18.1,7.484c12.204-0.009,22.703-8.638,25.075-20.609C87.155,446.282,80.741,434.301,69.463,429.638z
				 M65.741,459.314c-3.332,3.332-8.735,3.332-12.067,0c-1.609-1.595-2.514-3.768-2.514-6.033c0-2.266,0.905-4.438,2.514-6.033
				c3.332-3.332,8.735-3.332,12.067,0C69.073,450.579,69.073,455.981,65.741,459.314z"/>
			<path d="M158.299,316.805c-7.633,0.859-14.743,4.303-20.15,9.758c-2.44,2.44-3.169,6.11-1.849,9.298
				c1.32,3.188,4.431,5.267,7.882,5.268l0.001,0.001c2.264,0.003,4.435-0.897,6.033-2.5c2.691-2.721,6.231-4.441,10.033-4.875
				c4.681-0.538,8.038-4.769,7.5-9.45C167.21,319.624,162.979,316.266,158.299,316.805z"/>
			<path d="M343.299,145.547c-6.67-6.65-17.463-6.65-24.133,0l-11.567,11.567c-2.44,2.44-3.169,6.11-1.849,9.298
				c1.32,3.188,4.431,5.267,7.882,5.268h0c2.264,0.003,4.435-0.897,6.033-2.5l11.567-11.567l11.542,11.542
				c3.332,3.332,8.735,3.332,12.067,0c3.332-3.332,3.332-8.735,0-12.067L343.299,145.547z"/>
		</g>
	</g>
</g>
<g>
</g>
<g>
</g>
<g>
</g>
<g>
</g>
<g>
</g>
<g>
</g>
<g>
</g>
<g>
</g>
<g>
</g>
<g>
</g>
<g>
</g>
<g>
</g>
<g>
</g>
<g>
</g>
<g>
</g>
</svg>
